# xmcd
#
# Track frame offsets:
#	150
#	14150
#	24650
#	49475
#	69412
#	87007
#	112587
#	139077
#	152437
#	168552
#	187199
#	202121
#	213899
#	236051
#	257069
#	271056
#	286766
#	299311
#	316464
#	331984
#
# Disc length: 4676 seconds
#
# Revision: 0
# Processed by: cddbd v1.5.1PL0 Copyright (c) Steve Scherf et al.
# Submitted via: audiograbber 1.82.01
#
DISCID=27124214
DTITLE=Lyle Lovett - Step Inside This House
DYEAR=1900
DGENRE=Country
TTITLE0=Bears
TTITLE1=Lungs
TTITLE2=Step Inside This House
TTITLE3=Memphis Midnight_Memphis Morning
TTITLE4=Teach Me About Love
TTITLE5=Sleepwalking
TTITLE6=Balad Of The Snow Leopard and The Tangueray Cowboy
TTITLE7=More Pretty Girls Than One
TTITLE8=West Texas Highway
TTITLE9=Rollin' By
TTITLE10=Texas Trilogy_Daybreak
TTITLE11=Texas Trilogy_Train Ride
TTITLE12=Texas Trilogy_Bosque County Romance
TTITLE13=Flyin' Shoes
TTITLE14=Babes InThe Woods
TTITLE15=Highway Kind
TTITLE16=Lonely In Love
TTITLE17=If I Needed You
TTITLE18=I'll Come Knockin'
TTITLE19=Texas River Song
EXTD=
EXTT0=
EXTT1=
EXTT2=
EXTT3=
EXTT4=
EXTT5=
EXTT6=
EXTT7=
EXTT8=
EXTT9=
EXTT10=
EXTT11=
EXTT12=
EXTT13=
EXTT14=
EXTT15=
EXTT16=
EXTT17=
EXTT18=
EXTT19=
PLAYORDER=
